<?xml version="1.0" encoding="UTF-8" standalone="no"?>
<!DOCTYPE svg PUBLIC "-//W3C//DTD SVG 1.1//EN" "http://www.w3.org/Graphics/SVG/1.1/DTD/svg11.dtd">
<!-- 由 Microsoft Visio, SVG Export 生成 master_37.svg 页-1 -->
<svg xmlns="http://www.w3.org/2000/svg" xmlns:xlink="http://www.w3.org/1999/xlink" xmlns:ev="http://www.w3.org/2001/xml-events"
		xmlns:v="http://schemas.microsoft.com/visio/2003/SVGExtensions/" width="0.696247in" height="0.21907in"
		viewBox="0 0 50.1298 15.7731" xml:space="preserve" color-interpolation-filters="sRGB" class="st4">
	<v:documentProperties v:langID="2052" v:metric="true" v:viewMarkup="false"/>

	<style type="text/css">
	<![CDATA[
		.st1 {fill:#000000;stroke:#000000;stroke-linecap:round;stroke-linejoin:round;stroke-width:0.24}
		.st2 {fill:none;stroke:none;stroke-linecap:round;stroke-linejoin:round;stroke-width:0.75}
		.st3 {fill:#000000;font-family:宋体;font-size:0.833336em}
		.st4 {fill:none;fill-rule:evenodd;font-size:12px;overflow:visible;stroke-linecap:square;stroke-miterlimit:3}
	]]>
	</style>

	<g v:mID="0" v:index="1" v:groupContext="foregroundPage">
		<title>页-1</title>
		<v:pageProperties v:drawingScale="0.0393701" v:pageScale="0.0393701" v:drawingUnits="24" v:shadowOffsetX="8.50394"
				v:shadowOffsetY="-8.50394"/>
		<g id="group211-1" transform="translate(0.12,-0.12)" v:mID="211" v:groupContext="group">
			<title>900六点横排（带序号）</title>
			<g id="shape212-2" v:mID="212" v:groupContext="shape">
				<title>点（不带序号）</title>
				<v:userDefs>
					<v:ud v:nameU="visVersion" v:val="VT0(14):26"/>
				</v:userDefs>
				<path d="M0 14.21 A1.55903 1.55903 0 0 1 3.12 14.21 A1.55903 1.55903 0 0 1 0 14.21 Z" class="st1"/>
			</g>
			<g id="shape213-4" v:mID="213" v:groupContext="shape" transform="translate(9.35434,7.63833E-14)">
				<title>点（不带序号）.49</title>
				<v:userDefs>
					<v:ud v:nameU="visVersion" v:val="VT0(14):26"/>
				</v:userDefs>
				<path d="M0 14.21 A1.55903 1.55903 0 0 1 3.12 14.21 A1.55903 1.55903 0 0 1 0 14.21 Z" class="st1"/>
			</g>
			<g id="shape214-6" v:mID="214" v:groupContext="shape" transform="translate(18.7087,7.63833E-14)">
				<title>点（不带序号）.50</title>
				<v:userDefs>
					<v:ud v:nameU="visVersion" v:val="VT0(14):26"/>
				</v:userDefs>
				<path d="M0 14.21 A1.55903 1.55903 0 0 1 3.12 14.21 A1.55903 1.55903 0 0 1 0 14.21 Z" class="st1"/>
			</g>
			<g id="shape215-8" v:mID="215" v:groupContext="shape" transform="translate(28.063,7.63833E-14)">
				<title>点（不带序号）.51</title>
				<v:userDefs>
					<v:ud v:nameU="visVersion" v:val="VT0(14):26"/>
				</v:userDefs>
				<path d="M0 14.21 A1.55903 1.55903 0 0 1 3.12 14.21 A1.55903 1.55903 0 0 1 0 14.21 Z" class="st1"/>
			</g>
			<g id="shape216-10" v:mID="216" v:groupContext="shape" transform="translate(37.4174,7.63833E-14)">
				<title>点（不带序号）.52</title>
				<v:userDefs>
					<v:ud v:nameU="visVersion" v:val="VT0(14):26"/>
				</v:userDefs>
				<path d="M0 14.21 A1.55903 1.55903 0 0 1 3.12 14.21 A1.55903 1.55903 0 0 1 0 14.21 Z" class="st1"/>
			</g>
			<g id="shape217-12" v:mID="217" v:groupContext="shape" transform="translate(46.7717,7.63833E-14)">
				<title>点（不带序号）.53</title>
				<v:userDefs>
					<v:ud v:nameU="visVersion" v:val="VT0(14):26"/>
				</v:userDefs>
				<path d="M0 14.21 A1.55903 1.55903 0 0 1 3.12 14.21 A1.55903 1.55903 0 0 1 0 14.21 Z" class="st1"/>
			</g>
			<g id="shape218-14" v:mID="218" v:groupContext="shape" transform="translate(5.95277,-3.11807)">
				<title>工作表.218</title>
				<desc>(2-6)</desc>
				<v:textBlock v:margins="rect(4,4,4,4)" v:tabSpace="42.5197"/>
				<v:textRect cx="16.8044" cy="9.69307" width="33.61" height="12.16"/>
				<rect x="0" y="3.61307" width="33.6088" height="12.16" class="st2"/>
							</g>
		</g>
	</g>
</svg>
