<?xml version="1.0" encoding="UTF-8" standalone="no"?>
<!DOCTYPE svg PUBLIC "-//W3C//DTD SVG 1.1//EN" "http://www.w3.org/Graphics/SVG/1.1/DTD/svg11.dtd">
<!-- 由 Microsoft Visio, SVG Export 生成 master_49.svg 页-1 -->
<svg xmlns="http://www.w3.org/2000/svg" xmlns:xlink="http://www.w3.org/1999/xlink" xmlns:ev="http://www.w3.org/2001/xml-events"
		xmlns:v="http://schemas.microsoft.com/visio/2003/SVGExtensions/" width="0.713468in" height="0.0466397in"
		viewBox="0 0 51.3697 3.35806" xml:space="preserve" color-interpolation-filters="sRGB" class="st2">
	<v:documentProperties v:langID="2052" v:metric="true" v:viewMarkup="false"/>

	<style type="text/css">
	<![CDATA[
		.st1 {fill:#000000;stroke:#000000;stroke-linecap:round;stroke-linejoin:round;stroke-width:0.24}
		.st2 {fill:none;fill-rule:evenodd;font-size:12px;overflow:visible;stroke-linecap:square;stroke-miterlimit:3}
	]]>
	</style>

	<g v:mID="0" v:index="1" v:groupContext="foregroundPage">
		<title>页-1</title>
		<v:pageProperties v:drawingScale="0.0393701" v:pageScale="0.0393701" v:drawingUnits="24" v:shadowOffsetX="8.50394"
				v:shadowOffsetY="-8.50394"/>
		<g id="group286-1" transform="translate(0.12,-0.12)" v:mID="286" v:groupContext="group">
			<title>900五点横排（不带序号）</title>
			<g id="shape287-2" v:mID="287" v:groupContext="shape" transform="translate(39.4164,0.24) rotate(90)">
				<title>圆形</title>
				<v:userDefs>
					<v:ud v:nameU="visVersion" v:val="VT0(14):26"/>
				</v:userDefs>
				<path d="M0 1.8 A1.55903 1.55903 0 0 1 3.12 1.8 A1.55903 1.55903 0 0 1 0 1.8 Z" class="st1"/>
			</g>
			<g id="shape288-4" v:mID="288" v:groupContext="shape" transform="translate(15.3114,0.24) rotate(90)">
				<title>圆形.106</title>
				<v:userDefs>
					<v:ud v:nameU="visVersion" v:val="VT0(14):26"/>
				</v:userDefs>
				<path d="M0 1.9 A1.45986 1.45986 0 0 1 2.92 1.9 A1.45986 1.45986 0 0 1 0 1.9 Z" class="st1"/>
			</g>
			<g id="shape289-6" v:mID="289" v:groupContext="shape" transform="translate(3.35806,0.24) rotate(90)">
				<title>圆形.109</title>
				<v:userDefs>
					<v:ud v:nameU="visVersion" v:val="VT0(14):26"/>
				</v:userDefs>
				<path d="M0 1.9 A1.45986 1.45986 0 0 1 2.92 1.9 A1.45986 1.45986 0 0 1 0 1.9 Z" class="st1"/>
			</g>
			<g id="shape290-8" v:mID="290" v:groupContext="shape" transform="translate(27.2647,0.24) rotate(90)">
				<title>圆形.110</title>
				<v:userDefs>
					<v:ud v:nameU="visVersion" v:val="VT0(14):26"/>
				</v:userDefs>
				<path d="M0 1.8 A1.55903 1.55903 0 0 1 3.12 1.8 A1.55903 1.55903 0 0 1 0 1.8 Z" class="st1"/>
			</g>
			<g id="shape291-10" v:mID="291" v:groupContext="shape" transform="translate(51.568,0.24) rotate(90)">
				<title>圆形.112</title>
				<v:userDefs>
					<v:ud v:nameU="visVersion" v:val="VT0(14):26"/>
				</v:userDefs>
				<path d="M0 1.9 A1.45986 1.45986 0 0 1 2.92 1.9 A1.45986 1.45986 0 0 1 0 1.9 Z" class="st1"/>
			</g>
		</g>
	</g>
</svg>
