<?xml version="1.0" encoding="UTF-8" standalone="no"?>
<!DOCTYPE svg PUBLIC "-//W3C//DTD SVG 1.1//EN" "http://www.w3.org/Graphics/SVG/1.1/DTD/svg11.dtd">
<!-- 由 Microsoft Visio, SVG Export 生成 master_29.svg 页-1 -->
<svg xmlns="http://www.w3.org/2000/svg" xmlns:xlink="http://www.w3.org/1999/xlink" xmlns:ev="http://www.w3.org/2001/xml-events"
		xmlns:v="http://schemas.microsoft.com/visio/2003/SVGExtensions/" width="1.37125in" height="0.86589in"
		viewBox="0 0 98.7299 62.3441" xml:space="preserve" color-interpolation-filters="sRGB" class="st5">
	<v:documentProperties v:langID="2052" v:metric="true" v:viewMarkup="false"/>

	<style type="text/css">
	<![CDATA[
		.st1 {fill:#000000;stroke:#000000;stroke-linecap:round;stroke-linejoin:round;stroke-width:0.24}
		.st2 {stroke:#000000;stroke-linecap:round;stroke-linejoin:round;stroke-width:0.75}
		.st3 {fill:none;stroke:none;stroke-linecap:round;stroke-linejoin:round;stroke-width:0.25}
		.st4 {fill:#000000;font-family:宋体;font-size:0.833336em}
		.st5 {fill:none;fill-rule:evenodd;font-size:12px;overflow:visible;stroke-linecap:square;stroke-miterlimit:3}
	]]>
	</style>

	<g v:mID="0" v:index="1" v:groupContext="foregroundPage">
		<title>页-1</title>
		<v:pageProperties v:drawingScale="0.0393701" v:pageScale="0.0393701" v:drawingUnits="24" v:shadowOffsetX="8.50394"
				v:shadowOffsetY="-8.50394"/>
		<g id="group165-1" transform="translate(0.125,-40.3992)" v:mID="165" v:groupContext="group">
			<title>线孔(2)</title>
			<g id="shape166-2" v:mID="166" v:groupContext="shape" transform="translate(25.1985,-1.77636E-13)">
				<title>点</title>
				<v:userDefs>
					<v:ud v:nameU="visVersion" v:val="VT0(14):26"/>
				</v:userDefs>
				<path d="M0 59.44 A2.90551 2.90551 0 1 1 5.81 59.44 A2.90551 2.90551 0 1 1 0 59.44 Z" class="st1"/>
			</g>
			<g id="shape167-4" v:mID="167" v:groupContext="shape" transform="translate(39.6445,67.3853) rotate(-55.4488)">
				<title>工作表.167</title>
				<path d="M0 -14.01 C1.61 -8.38 5.18 -11.11 6.38 19.01 C6.82 30.03 6.94 45.46 7.35 53.95 C7.8 63.63 8.63 64.32 9.37
							 59.45 C10.4 52.76 11.28 35.56 11.88 10.38 C12.35 -9.48 12.66 -34.32 13.42 -14.01" class="st2"/>
			</g>
			<g id="shape168-7" v:mID="168" v:groupContext="shape" transform="translate(0,-10.2756)">
				<title>工作表.168</title>
				<desc>线孔(2)</desc>
				<v:textBlock v:margins="rect(4,4,4,4)" v:tabSpace="42.5197"/>
				<v:textRect cx="30.0473" cy="56.6748" width="60.1" height="11.3386"/>
				<rect x="0" y="51.0055" width="60.0945" height="11.3386" class="st3"/>
							</g>
		</g>
	</g>
</svg>
